<svg viewBox="0 0 400 700" xmlns="http://www.w3.org/2000/svg">
  <!-- Background -->
  <rect width="400" height="700" fill="#f5f5f5"/>
  
  <!-- Header -->
  <rect width="400" height="60" fill="#4285f4"/>
  <text x="20" y="38" font-family="Arial" font-size="18" fill="white">Create Study Session</text>
  
  <!-- Back Button -->
  <circle cx="370" cy="30" r="15" fill="white" fill-opacity="0.3"/>
  <text x="370" y="35" font-family="Arial" font-size="14" fill="white" text-anchor="middle">←</text>
  
  <!-- Form Fields -->
  <text x="30" y="100" font-family="Arial" font-size="16" fill="#333">Title</text>
  <rect x="30" y="110" width="340" height="50" rx="5" fill="white" stroke="#ccc"/>
  <text x="45" y="140" font-family="Arial" font-size="14" fill="#999">Enter session title</text>
  
  <text x="30" y="190" font-family="Arial" font-size="16" fill="#333">Date</text>
  <rect x="30" y="200" width="340" height="50" rx="5" fill="white" stroke="#ccc"/>
  <text x="45" y="230" font-family="Arial" font-size="14" fill="#999">Select date</text>
  
  <text x="30" y="280" font-family="Arial" font-size="16" fill="#333">Time</text>
  <rect x="30" y="290" width="160" height="50" rx="5" fill="white" stroke="#ccc"/>
  <text x="45" y="320" font-family="Arial" font-size="14" fill="#999">Start time</text>
  
  <rect x="210" y="290" width="160" height="50" rx="5" fill="white" stroke="#ccc"/>
  <text x="225" y="320" font-family="Arial" font-size="14" fill="#999">End time</text>
  
  <text x="30" y="370" font-family="Arial" font-size="16" fill="#333">Location</text>
  <rect x="30" y="380" width="340" height="50" rx="5" fill="white" stroke="#ccc"/>
  <text x="45" y="410" font-family="Arial" font-size="14" fill="#999">Enter location</text>
  
  <text x="30" y="460" font-family="Arial" font-size="16" fill="#333">Description</text>
  <rect x="30" y="470" width="340" height="100" rx="5" fill="white" stroke="#ccc"/>
  <text x="45" y="500" font-family="Arial" font-size="14" fill="#999">Enter session details</text>
  
  <!-- Action Buttons -->
  <rect x="30" y="600" width="160" height="50" rx="5" fill="white" stroke="#ccc"/>
  <text x="110" y="630" font-family="Arial" font-size="16" fill="#666" text-anchor="middle">Cancel</text>
  
  <rect x="210" y="600" width="160" height="50" rx="5" fill="#4285f4"/>
  <text x="290" y="630" font-family="Arial" font-size="16" fill="white" text-anchor="middle">Save</text>
</svg>